<svg width="400" height="400" viewBox="0 0 400 400" fill="none" xmlns="http://www.w3.org/2000/svg">
<g clip-path="url(#clip0_6217:20800)">
<path d="M65.7001 65C46.9246 90.164 35.4912 120.086 32.6809 151.414C29.8707 182.742 35.7947 214.238 49.7891 242.372C63.7835 270.506 85.2954 294.167 111.914 310.704C138.533 327.241 169.208 336 200.5 336C231.792 336 262.467 327.241 289.086 310.704C315.705 294.167 337.217 270.506 351.211 242.372C365.205 214.238 371.129 182.742 368.319 151.414C365.509 120.086 354.075 90.164 335.3 65H65.7001Z" fill="black" stroke="black" stroke-width="2"/>
<path d="M73.5766 72.9999C55.9841 96.564 45.2712 124.584 42.638 153.92C40.0049 183.256 45.5556 212.749 58.6681 239.094C71.7807 265.439 91.937 287.596 116.879 303.081C141.82 318.568 170.562 326.769 199.882 326.769C229.203 326.769 257.945 318.568 282.886 303.081C307.827 287.596 327.984 265.439 341.097 239.094C354.209 212.749 359.759 183.256 357.127 153.92C354.494 124.584 343.781 96.564 326.188 72.9999H73.5766Z" fill="#69573E"/>
<path d="M76.5883 76.7646C59.4154 99.6295 48.9579 126.818 46.3875 155.284C43.8172 183.749 49.2355 212.367 62.0354 237.931C74.8353 263.494 94.511 284.994 118.858 300.02C143.205 315.046 171.261 323.005 199.882 323.005C228.504 323.005 256.56 315.046 280.907 300.02C305.253 284.994 324.929 263.494 337.73 237.931C350.529 212.367 355.947 183.749 353.377 155.284C350.807 126.818 340.35 99.6295 323.176 76.7646H76.5883Z" fill="black"/>
<path d="M101.677 93C87.9286 111.457 79.5564 133.404 77.4986 156.381C75.4408 179.359 79.7786 202.459 90.026 223.095C100.273 243.73 116.026 261.085 135.517 273.213C155.009 285.342 177.47 291.767 200.384 291.767C223.297 291.767 245.758 285.342 265.25 273.213C284.741 261.085 300.494 243.73 310.741 223.095C320.989 202.459 325.326 179.359 323.269 156.381C321.211 133.404 312.838 111.457 299.09 93H101.677Z" fill="#69573E"/>
<path d="M104.689 96.7647C91.3598 114.522 83.2431 135.638 81.2481 157.745C79.2531 179.852 83.4586 202.078 93.3932 221.931C103.328 241.785 118.6 258.482 137.497 270.152C156.393 281.821 178.169 288.002 200.384 288.002C222.598 288.002 244.374 281.821 263.271 270.152C282.167 258.482 297.439 241.785 307.374 221.931C317.309 202.078 321.514 179.852 319.519 157.745C317.524 135.638 309.407 114.522 296.079 96.7647H104.689Z" fill="black"/>
<path d="M66.0866 220.759C64.4048 221.333 62.8774 221.176 61.5045 220.287C60.1316 219.398 59.0797 217.884 58.3488 215.745C57.618 213.606 57.3518 211.742 57.5503 210.152L60.4741 209.153C60.3635 210.154 60.3567 211.177 60.4539 212.223C60.5541 213.277 60.7471 214.223 61.0329 215.059C61.4514 216.284 61.9922 217.106 62.6554 217.524C63.3216 217.952 64.0471 218.031 64.832 217.763C65.5392 217.522 66.0473 217.049 66.3562 216.347C66.6651 215.644 66.8701 214.341 66.9711 212.438C67.0803 210.474 67.4626 208.985 68.118 207.972C68.7733 206.958 69.7306 206.236 70.9898 205.806C72.5682 205.266 74.0018 205.403 75.2905 206.214C76.5793 207.026 77.5463 208.377 78.1917 210.265C78.8106 212.077 79.0298 214.015 78.8493 216.08L75.9905 215.959C76.1231 214.035 75.9639 212.414 75.513 211.094C75.1712 210.094 74.6919 209.41 74.0752 209.042C73.4671 208.672 72.8051 208.61 72.0893 208.854C71.5976 209.022 71.2104 209.27 70.9275 209.598C70.6532 209.923 70.4419 210.375 70.2935 210.956C70.145 211.536 70.0271 212.53 69.9397 213.937C69.8363 215.524 69.6449 216.725 69.3657 217.543C69.0865 218.361 68.6837 219.028 68.1572 219.545C67.6307 220.063 66.9405 220.467 66.0866 220.759Z" fill="#D4B47C"/>
<path d="M81.7118 242.148C78.8431 243.684 76.2283 244.159 73.8672 243.572C71.5104 242.993 69.6287 241.39 68.2221 238.763C66.7982 236.103 66.4909 233.636 67.3002 231.363C68.1218 229.093 69.987 227.18 72.8959 225.622C75.8048 224.065 78.4216 223.584 80.7462 224.18C83.0751 224.784 84.9515 226.416 86.3754 229.076C87.7777 231.695 88.0702 234.144 87.2529 236.422C86.4356 238.7 84.5886 240.608 81.7118 242.148ZM74.5108 228.697C72.3412 229.858 70.9283 231.178 70.2722 232.656C69.6242 234.13 69.7604 235.727 70.681 237.446C71.5972 239.158 72.8421 240.151 74.4156 240.425C75.9934 240.707 77.8792 240.261 80.0729 239.087C82.2345 237.93 83.6414 236.618 84.2938 235.152C84.9505 233.695 84.8207 232.11 83.9044 230.398C82.9795 228.671 81.722 227.664 80.1319 227.378C78.5461 227.1 76.6724 227.54 74.5108 228.697Z" fill="#D4B47C"/>
<path d="M80.2433 257.349L78.2902 254.764L94.2393 242.716L101.038 251.716L98.8343 253.38L93.9888 246.966L89.0033 250.732L93.544 256.743L91.3295 258.416L86.7888 252.405L80.2433 257.349Z" fill="#D4B47C"/>
<path d="M94.7498 274.217L92.4648 271.881L104.75 259.864L100.639 255.662L102.643 253.702L113.15 264.443L111.146 266.403L107.035 262.2L94.7498 274.217Z" fill="#D4B47C"/>
<path d="M119.861 294.671L116.967 292.606L121.133 280.933C121.317 280.425 121.602 279.711 121.991 278.79C122.385 277.862 122.674 277.229 122.86 276.891C122.446 277.312 121.885 277.841 121.174 278.476C120.471 279.116 119.931 279.582 119.555 279.873L109.968 287.61L107.074 285.545L110.785 275.898L114.447 266.25L117.162 268.188L112.721 279.329C111.999 281.109 111.3 282.637 110.624 283.913C111.156 283.341 111.781 282.724 112.501 282.061C113.22 281.399 113.818 280.874 114.296 280.487L123.727 272.874L126.365 274.756L122.265 286.242C121.895 287.311 121.227 288.827 120.261 290.792C121.13 289.81 122.361 288.651 123.954 287.313L133.019 279.506L135.712 281.428L119.861 294.671Z" fill="#D4B47C"/>
<path d="M143.348 306.833L143.843 300.955L136.894 297.775L132.806 302.008L129.673 300.575L144.826 285.437L148.058 286.916L146.506 308.278L143.348 306.833ZM144.232 298.036L144.793 292.308C144.821 291.92 144.885 291.318 144.988 290.503C145.099 289.691 145.188 289.101 145.257 288.732C144.567 289.649 143.729 290.613 142.745 291.626L138.936 295.612L144.232 298.036Z" fill="#D4B47C"/>
<path d="M159.695 301.3L161.878 301.919C163.342 302.335 164.481 302.364 165.292 302.006C166.104 301.649 166.662 300.936 166.965 299.866C167.273 298.779 167.14 297.897 166.563 297.223C165.987 296.548 164.985 296.008 163.555 295.602L161.477 295.013L159.695 301.3ZM158.956 303.905L156.778 311.586L153.635 310.695L159.087 291.465L164.519 293.005C167.001 293.709 168.706 294.694 169.635 295.962C170.564 297.23 170.763 298.802 170.231 300.678C169.552 303.072 167.823 304.425 165.044 304.736L168.064 314.786L164.486 313.772L162.06 304.785L158.956 303.905Z" fill="#D4B47C"/>
<path d="M185.987 317.508L174.786 315.969L177.506 296.167L188.707 297.706L188.331 300.442L180.367 299.348L179.627 304.738L187.09 305.764L186.718 308.472L179.255 307.447L178.401 313.664L186.365 314.758L185.987 317.508Z" fill="#D4B47C"/>
<path d="M217.148 297.223L222.983 296.145C225.69 295.645 227.717 295.679 229.063 296.245C230.419 296.811 231.254 297.945 231.569 299.648C231.781 300.795 231.661 301.804 231.211 302.675C230.76 303.546 229.997 304.183 228.922 304.586L228.947 304.72C230.375 304.725 231.483 305.053 232.271 305.705C233.066 306.346 233.584 307.321 233.826 308.629C234.152 310.395 233.79 311.894 232.739 313.126C231.694 314.348 230.074 315.162 227.879 315.567L220.78 316.879L217.148 297.223ZM221.862 304.75L224.954 304.179C226.298 303.93 227.241 303.538 227.782 303.003C228.32 302.458 228.496 301.675 228.307 300.653C228.136 299.73 227.677 299.125 226.928 298.837C226.189 298.547 225.093 298.536 223.641 298.804L220.858 299.319L221.862 304.75ZM222.344 307.358L223.494 313.583L226.909 312.952C228.253 312.704 229.219 312.261 229.805 311.624C230.4 310.977 230.594 310.098 230.389 308.986C230.2 307.964 229.71 307.272 228.92 306.908C228.13 306.544 227.022 306.494 225.597 306.757L222.344 307.358Z" fill="#D4B47C"/>
<path d="M255.358 307.76L251.627 303.191L244.421 305.736L244.426 311.621L241.178 312.768L241.545 291.353L244.897 290.169L258.633 306.604L255.358 307.76ZM249.877 300.822L246.299 296.315C246.049 296.017 245.677 295.539 245.184 294.882C244.699 294.222 244.354 293.735 244.146 293.422C244.287 294.561 244.356 295.836 244.353 297.249L244.386 302.762L249.877 300.822Z" fill="#D4B47C"/>
<path d="M272.724 293.374C273.55 294.947 273.629 296.481 272.961 297.974C272.293 299.467 270.959 300.739 268.957 301.789C266.956 302.84 265.155 303.389 263.553 303.437L262.117 300.701C263.123 300.657 264.136 300.507 265.154 300.25C266.18 299.989 267.085 299.653 267.868 299.242C269.014 298.641 269.742 297.98 270.054 297.261C270.374 296.537 270.342 295.808 269.956 295.073C269.609 294.412 269.064 293.982 268.322 293.785C267.581 293.587 266.262 293.585 264.366 293.777C262.408 293.971 260.879 293.821 259.776 293.329C258.674 292.838 257.814 292.002 257.195 290.824C256.42 289.347 256.334 287.91 256.939 286.512C257.543 285.114 258.729 283.951 260.496 283.023C262.191 282.133 264.073 281.619 266.141 281.481L266.46 284.324C264.539 284.488 262.961 284.895 261.726 285.543C260.79 286.034 260.188 286.613 259.92 287.278C259.647 287.936 259.687 288.6 260.039 289.27C260.28 289.73 260.585 290.074 260.952 290.304C261.315 290.525 261.795 290.664 262.391 290.722C262.988 290.779 263.988 290.743 265.392 290.613C266.975 290.472 268.192 290.477 269.043 290.627C269.894 290.777 270.615 291.073 271.207 291.514C271.799 291.955 272.304 292.575 272.724 293.374Z" fill="#D4B47C"/>
<path d="M288.176 289.654L285.511 291.545L275.564 277.53L270.77 280.933L269.148 278.647L281.401 269.951L283.023 272.236L278.229 275.639L288.176 289.654Z" fill="#D4B47C"/>
<path d="M307.504 273.079L302.23 270.436L296.696 275.706L299.108 281.074L296.613 283.45L288.188 263.758L290.762 261.307L310.019 270.685L307.504 273.079ZM299.664 268.99L294.556 266.342C294.205 266.172 293.671 265.888 292.952 265.49C292.24 265.086 291.725 264.783 291.407 264.582C292.002 265.563 292.587 266.7 293.161 267.99L295.447 273.007L299.664 268.99Z" fill="#D4B47C"/>
<path d="M308.445 255.842L309.832 254.046C310.763 252.841 311.213 251.796 311.183 250.909C311.154 250.023 310.699 249.24 309.819 248.56C308.924 247.869 308.056 247.666 307.216 247.949C306.375 248.233 305.501 248.963 304.593 250.139L303.273 251.849L308.445 255.842ZM310.588 257.497L316.908 262.376L314.911 264.963L299.09 252.747L302.54 248.278C304.117 246.236 305.666 245.02 307.188 244.629C308.711 244.238 310.244 244.639 311.788 245.831C313.757 247.352 314.369 249.46 313.624 252.155L324.077 253.091L321.804 256.034L312.56 254.943L310.588 257.497Z" fill="#D4B47C"/>
<path d="M326.888 227.715C329.786 229.292 331.567 231.303 332.229 233.748C332.883 236.19 332.387 238.923 330.741 241.95L328.069 246.862L310.51 237.312L313.462 231.884C314.982 229.089 316.917 227.325 319.267 226.59C321.617 225.855 324.157 226.231 326.888 227.715ZM325.338 230.794C321.134 228.508 317.963 229.331 315.825 233.262L314.473 235.748L327.216 242.679L328.326 240.637C330.626 236.409 329.629 233.128 325.338 230.794Z" fill="#D4B47C"/>
<path d="M338.213 211.346C339.886 211.947 340.981 213.023 341.498 214.575C342.015 216.126 341.892 217.966 341.127 220.093C340.363 222.22 339.407 223.843 338.259 224.961L335.352 223.916C336.063 223.203 336.707 222.408 337.284 221.53C337.864 220.644 338.303 219.785 338.602 218.953C339.04 217.735 339.131 216.756 338.874 216.014C338.62 215.265 338.103 214.749 337.323 214.469C336.62 214.216 335.928 214.268 335.248 214.624C334.568 214.98 333.594 215.87 332.327 217.293C331.016 218.759 329.788 219.683 328.643 220.066C327.498 220.449 326.299 220.415 325.047 219.965C323.477 219.401 322.443 218.4 321.943 216.961C321.443 215.522 321.531 213.864 322.206 211.985C322.853 210.184 323.892 208.533 325.322 207.032L327.48 208.912C326.175 210.332 325.287 211.698 324.816 213.01C324.458 214.005 324.405 214.839 324.658 215.51C324.902 216.179 325.38 216.642 326.092 216.897C326.581 217.073 327.038 217.121 327.463 217.042C327.881 216.959 328.328 216.738 328.807 216.377C329.285 216.016 329.998 215.313 330.944 214.269C332.015 213.094 332.915 212.275 333.644 211.81C334.373 211.346 335.104 211.076 335.838 211.001C336.572 210.926 337.364 211.041 338.213 211.346Z" fill="#D4B47C"/>
<path fill-rule="evenodd" clip-rule="evenodd" d="M59 115H164.156V147.265L196.106 115V133.82L136.838 193.519L196.106 253.375V272.685L118.105 193.519L150.572 161.348V128.562H72.1206L59 115Z" fill="#D4B47C"/>
<path fill-rule="evenodd" clip-rule="evenodd" d="M79.8117 136.254H142.951V149.847H93.1582L79.8117 136.254Z" fill="#D4B47C"/>
<path fill-rule="evenodd" clip-rule="evenodd" d="M340.714 115H235.557V147.265L203.608 115V133.82L262.876 193.519L203.608 253.102V272.685L281.609 193.519L249.141 161.348V128.562H327.593L340.714 115Z" fill="#85704D"/>
<path fill-rule="evenodd" clip-rule="evenodd" d="M319.902 136.254H256.763V149.847H306.555L319.902 136.254Z" fill="#85704D"/>
</g>
<defs>
<clipPath id="clip0_6217:20800">
<rect width="400" height="400" fill="white"/>
</clipPath>
</defs>
</svg>
