<svg width="400" height="282" viewBox="0 0 400 282" fill="none" xmlns="http://www.w3.org/2000/svg">
<path d="M345.87 101.803C343.803 86.5936 335.44 73.3828 320.23 61.4587L311.477 55.5541L305.641 64.4225C297.854 77.1329 294.358 92.0095 295.67 106.858C296.419 115.099 299.044 123.06 303.343 130.132C293.994 134.912 283.579 137.229 273.085 136.863H1.54084L1.01242 140.011C-1.53783 155.266 -1.51485 202.871 29.0192 239.448C52.2012 267.248 86.9627 281.354 132.408 281.354C230.742 281.354 303.527 235.404 337.622 152.096C351.017 152.372 379.897 152.096 394.716 123.515C395.083 122.871 396.002 121.102 398.576 115.68L400 112.716L391.683 107.087C382.677 100.953 361.953 98.7245 345.985 101.803H345.87ZM218.657 0H177.301V38.024H218.657V0ZM218.657 45.6288H177.301V83.6527H218.657V45.6288ZM169.857 45.6288H128.502V83.6527H169.857V45.6288ZM121.058 45.6288H79.7025V83.6527H121.058V45.6288ZM72.2586 91.2805H30.9032V129.305H72.2586V91.2805ZM121.058 91.2805H79.7025V129.305H121.058V91.2805ZM169.857 91.2805H128.502V129.305H169.857V91.2805ZM218.657 91.2805H177.301V129.305H218.657V91.2805ZM267.456 91.2805H226.101V129.305H267.456V91.2805Z" fill="#1D63ED"/>
</svg>
